<?xml version="1.0" encoding="utf-8"?>
<!-- Generator: Adobe Illustrator 23.0.0, SVG Export Plug-In . SVG Version: 6.00 Build 0)  -->
<svg version="1.1" id="Layer_1" xmlns="http://www.w3.org/2000/svg" xmlns:xlink="http://www.w3.org/1999/xlink" x="0px" y="0px"
	 viewBox="0 0 200 250" style="enable-background:new 0 0 200 250;" xml:space="preserve">
<style type="text/css">
	.st0{fill:#4C87DE;}
	.st1{fill:none;stroke:#2F72BF;stroke-width:1.0088;stroke-linecap:round;stroke-linejoin:round;stroke-miterlimit:10;}
	.st2{fill:#1D0301;}
	.st3{fill:#FDA98B;}
	.st4{fill:#70A1F4;}
	.st5{fill:none;stroke:#568EE3;stroke-width:1.0088;stroke-linecap:round;stroke-miterlimit:10;}
	.st6{fill:#F7FFF9;}
	.st7{fill:none;stroke:#1D0301;stroke-width:0.7084;stroke-linecap:round;stroke-linejoin:round;stroke-miterlimit:10;}
	.st8{fill:#1E0401;}
	.st9{clip-path:url(#XMLID_2_);}
	.st10{fill:none;stroke:#1C0001;stroke-width:0.4106;stroke-linecap:round;stroke-linejoin:round;stroke-miterlimit:10;}
	.st11{clip-path:url(#XMLID_3_);}
</style>
<g>
	<g>
		<path class="st0" d="M141.45,260.93c-2.27-34.2-27.08-66.35-27.08-66.35l-51.24-27.65c0,0-8.1,55.06-11.2,116.16l-1.57,75.79
			h39.26l4.41-76.51l10.76,76.51h41.62C146.41,358.89,142.86,282.22,141.45,260.93z"/>
		<polyline class="st1" points="94.03,282.38 91.11,266.94 77.41,260.07 		"/>
	</g>
	<path class="st2" d="M72.03,40.04c0,0,11.81,27.8-10.65,64.93h58.35c0,0,6.48-16.1,6.13-71.24L72.03,40.04z"/>
	<g>
		<g>
			<path class="st3" d="M41.44,146.3c0,0-5.01,25.41-6.88,43.22c-0.66,6.26,3.5,12.01,9.66,13.35h0c6.7,1.46,13.31-2.82,14.72-9.53
				l9.03-43.04L41.44,146.3z"/>
			<path class="st4" d="M56.41,106c0,0-14.34,3.45-21.4,45.41H61.7l6.27-21.92L56.41,106z"/>
		</g>
		<g>
			<path class="st4" d="M75.22,99.31c0,0-14.73,3.09-21.09,8.26l3.58,28.63c0,0-11.53,16.7-0.4,41.36l-5.14,61.28l90.37,2.4
				l-14.43-71.12l12.59-65.15l-17.71-6.55L75.22,99.31z"/>
			<g>
				<polygon class="st3" points="75.22,99.31 96.49,94.18 122.99,98.42 88.86,115.71 				"/>
				<path class="st5" d="M52.75,151.41c0,0,1.23-9.32,4.97-15.21l-0.23-11.43"/>
				<rect x="98.58" y="131.48" class="st6" width="15" height="5.17"/>
			</g>
		</g>
		<g>
			<g>
				<g>
					<g>
						<path class="st3" d="M130.39,140.18l-12.49,52c-2.11,7.23-0.54,14.77,6.75,16.66l0,0c6.6,1.71,14.37-1.81,16.76-8.19
							c4.68-12.51,10.48-33.59,11.04-52.8L130.39,140.18z"/>
						<path class="st3" d="M122.1,182.7l-49.58-7.97c0,0-2.61,1.57-2.42,11.16l52,22.01V182.7z"/>
						<path class="st6" d="M72.52,174.73c0,0-21.91-8.56-26.79,7.22l24.03,3.95L72.52,174.73z"/>
					</g>
					<path class="st3" d="M48.05,203.16c0,0,34.71-2.99,62.2-9.85l-40.49-7.41l-24.03-3.95L48.05,203.16z"/>
					<path class="st6" d="M120.81,182.7l1.53-6.52l9.79-3.6c0.73-0.27,1.11-1.06,0.88-1.8l0,0c-0.23-0.71-0.97-1.13-1.7-0.96
						l-8.09,1.87l9.58-4.45c1.4-0.65,2.1-2.22,1.66-3.7l-0.2-0.68l0.63-0.28c0.89-0.39,1.31-1.41,0.96-2.31l0,0
						c-0.35-0.89-1.32-1.35-2.23-1.06l-6.71,2.12l2.34-1.65c0.77-0.54,0.93-1.61,0.36-2.35l0,0c-0.54-0.71-1.54-0.86-2.27-0.34
						l-8.12,5.77c-1.5,1.06-2.65,2.55-3.3,4.26l-5.14,13.85L120.81,182.7z"/>
				</g>
				<g>
					<path class="st4" d="M140.71,104.97c0,0,24.29,1.84,16.54,53.02l-41.49-4.71L140.71,104.97z"/>
					<polyline class="st5" points="126.94,154.55 119.41,153.69 122.99,128.71 					"/>
				</g>
			</g>
		</g>
	</g>
	<g>
		<g>
			<path class="st3" d="M76.45,46.15c0,0-4.49-3.49-7.78,0.65c-4.99,6.3,3.74,17.71,11.34,11.83L76.45,46.15z"/>
			<path class="st7" d="M70.74,50.63c0,0,4.21-0.11,6.67,4.69"/>
		</g>
		<g>
			<path class="st3" d="M120.48,46.42c0,0,4.4-3.42,7.62,0.64c4.89,6.17-3.67,17.35-11.11,11.6L120.48,46.42z"/>
			<path class="st7" d="M125.89,50.63c0,0-3.85-0.11-6.31,4.69"/>
		</g>
		<path class="st2" d="M125.89,35.19c0,14.93-12.1,27.03-27.03,27.03s-27.03-12.1-27.03-27.03S81.86,7.27,98.86,7.27
			C115.49,7.27,125.89,20.25,125.89,35.19z"/>
		<path class="st3" d="M89.12,68.18L87.3,99.67l0.56,0.11c6.93,1.38,14.05,1.38,20.98,0l0.72-0.14l-2.85-32.11L89.12,68.18z"/>
		<path class="st8" d="M89.71,72.8c0.68,0.33,18.28,8.88,18.28,8.88l-0.91-11.16L89.71,72.8z"/>
		<path class="st3" d="M76.75,34.7c0,0-3.35,39.59,21.12,40.08c26.45,0.53,23.11-40.08,23.11-40.08s-0.15-20.78-22.31-20.78
			C78.35,13.92,76.75,34.7,76.75,34.7z"/>
		<g>
			<g>
				<path class="st7" d="M96.42,48.49l0.04,4.05c-0.29,0.53,0.82,1.19,1.97,1.19"/>
				<path class="st2" d="M92.33,32.86l-13.8,1.99c0,0,3.61-2.92,7.23-3.46S92.33,32.86,92.33,32.86z"/>
				<path class="st2" d="M103.09,32.8l13.23,2.45c0,0-3-2.98-6.58-3.67C106.16,30.89,103.09,32.8,103.09,32.8z"/>
				<g>
					<g>
						<defs>
							<path id="XMLID_10_" d="M92.69,44.59c0,0-4.39-5.89-11.45-1.14C81.24,43.45,85.47,49.51,92.69,44.59z"/>
						</defs>
						<use xlink:href="#XMLID_10_"  style="overflow:visible;fill:#FFFFFF;"/>
						<clipPath id="XMLID_2_">
							<use xlink:href="#XMLID_10_"  style="overflow:visible;"/>
						</clipPath>
						<path class="st9" d="M89.89,43.62c0.27,1.47-0.71,2.87-2.17,3.14c-1.47,0.27-2.87-0.71-3.14-2.17
							c-0.27-1.47,0.71-2.87,2.17-3.14C88.22,41.18,89.63,42.15,89.89,43.62z"/>
					</g>
					<path class="st10" d="M81.24,43.45c2.57-2.08,5.27-1.95,5.27-1.95c4.19,0.14,6.18,3.09,6.18,3.09"/>
				</g>
				<g>
					<g>
						<defs>
							<path id="XMLID_9_" d="M102.13,44.59c0,0,4.39-5.89,11.45-1.14C113.58,43.45,109.35,49.51,102.13,44.59z"/>
						</defs>
						<use xlink:href="#XMLID_9_"  style="overflow:visible;fill:#FFFFFF;"/>
						<clipPath id="XMLID_3_">
							<use xlink:href="#XMLID_9_"  style="overflow:visible;"/>
						</clipPath>
						<path class="st11" d="M104.93,43.62c-0.27,1.47,0.71,2.87,2.17,3.14c1.47,0.27,2.87-0.71,3.14-2.17
							c0.27-1.47-0.71-2.87-2.17-3.14C106.6,41.18,105.19,42.15,104.93,43.62z"/>
					</g>
					<path class="st10" d="M113.58,43.45c-2.57-2.08-5.27-1.95-5.27-1.95c-4.19,0.14-6.18,3.09-6.18,3.09"/>
				</g>
			</g>
			<g>
				<path class="st6" d="M96.75,50.68l-15.51,3.5c0,0-1.23,9.16,2.93,14.37c8.88,11.11,25.14,6.23,29.5-1.03
					c0,0,3.33-5.45,2.17-13.22L96.75,50.68z"/>
				<polygon class="st6" points="85.3,58.05 77.62,52.39 77.41,50.57 86.09,56.97 				"/>
				<polygon class="st6" points="111,58.07 110.25,56.95 120.29,50.2 119.97,52.03 				"/>
			</g>
		</g>
		<path class="st2" d="M89.71,13.92c-0.23,0.08-3.54,5.96,11.35,11.94c14.89,5.98,17.37,7.54,20.05,11.85c0,0,5.66-4.79-0.82-15.48
			C113.8,11.54,97.96,11.09,89.71,13.92z"/>
		<path class="st2" d="M89.71,15.57c0,0-1.52,9.55-13.11,17.51c0,0-3.12-11.63,6.56-17.51C92.83,9.69,89.71,15.57,89.71,15.57z"/>
	</g>
</g>
</svg>
