<?xml version="1.0" encoding="utf-8"?>
<!-- Generator: Adobe Illustrator 23.0.0, SVG Export Plug-In . SVG Version: 6.00 Build 0)  -->
<svg version="1.1" id="Layer_1" xmlns="http://www.w3.org/2000/svg" xmlns:xlink="http://www.w3.org/1999/xlink" x="0px" y="0px"
	 viewBox="0 0 200 250" style="enable-background:new 0 0 200 250;" xml:space="preserve">
<style type="text/css">
	.st0{fill:#9DA5B2;}
	.st1{fill:#EF5656;}
	.st2{fill:#FF6464;}
	.st3{fill:#858D99;}
	.st4{fill:#3F4C5E;}
	.st5{fill:#FFB18A;}
	.st6{fill:#EAE9CA;}
	.st7{fill:#FFFFE6;}
	.st8{fill:#5B2A4C;}
	.st9{fill:#EF9467;}
	.st10{fill:#FFFFFF;}
	.st11{fill:#BC3F3F;}
	.st12{fill:#34425B;}
	.st13{fill:#1A2A3D;}
	.st14{fill:#8E3949;}
	.st15{opacity:0.2;}
	.st16{fill:#242E3D;}
	.st17{fill:#AF4C4A;}
	.st18{fill:#C6635C;}
	.st19{fill:#EFB348;}
	.st20{fill:#E29840;}
</style>
<g>
	<rect x="98.92" y="159.77" class="st0" width="3.66" height="62.04"/>
	<path class="st1" d="M129.84,152.83c-4.61-4.6-15.89-7.86-29.08-7.86c-13.19,0-24.48,3.25-29.08,7.86h-2.23v4.62
		c0,6.89,14.02,12.48,31.31,12.48c17.29,0,31.31-5.59,31.31-12.48v-4.62H129.84z"/>
	<ellipse class="st2" cx="100.75" cy="152.83" rx="31.31" ry="12.48"/>
	<rect x="88.28" y="219.64" class="st0" width="24.95" height="3.21"/>
	<g>
		<path class="st3" d="M90.94,230.45h0.15c1.27,0,2.31-1.04,2.31-2.31v-4.02c0-1.27-1.04-2.31-2.31-2.31h-0.15
			c-1.27,0-2.31,1.04-2.31,2.31v4.02C88.63,229.41,89.67,230.45,90.94,230.45z"/>
		<path class="st3" d="M110.42,230.45h0.15c1.27,0,2.31-1.04,2.31-2.31v-4.02c0-1.27-1.04-2.31-2.31-2.31h-0.15
			c-1.27,0-2.31,1.04-2.31,2.31v4.02C108.11,229.41,109.15,230.45,110.42,230.45z"/>
	</g>
</g>
<g>
	<polygon class="st4" points="83.87,123.6 83.34,132.04 118.17,132.04 117.33,123.6 98.54,110.12 	"/>
	<g>
		<path class="st4" d="M117.33,123.6c-0.54-13.87-0.66-25.25,1.03-44.96l-10.25-4.75h-15l-11.53,4.75
			c2.38,21.49,2.48,33.75,2.28,44.96H117.33z"/>
		<path class="st5" d="M105.52,114.75c-0.17,0.07-11.99-2.9-15.22,3.89c-0.48,1.01,0.02,2.25,1.03,2.62l3.65,1.36
			c3.58,1.33,7.55,0.48,10.38-2.21l0,0L105.52,114.75z"/>
		<path class="st6" d="M100.61,102.67c2.02-3.38,7.61-13.18,7.83-18.39c0.21-5.01-3.61-8.17-7.83-8.91
			c-4.22,0.75-8.04,3.9-7.83,8.91C93,89.49,98.59,99.29,100.61,102.67z"/>
		<path class="st7" d="M100.61,86.86c0,0,11.2,3.84,11.31,2.97c0.11-0.87-1.62-14.63-4.36-17.34c-1.79-1.77-4.97-3.18-6.95-3.05
			c-1.98-0.13-5.16,1.28-6.95,3.05c-2.74,2.72-4.47,16.47-4.36,17.34C89.41,90.7,100.61,86.86,100.61,86.86z"/>
		<path class="st8" d="M106.87,33.02c7.36-1.59,9.72,7.03,10.22,9.04c2.7,10.73-1.97,25.1-6.81,31.65c0,0-2.32-3.81-9.68-4.18
			c-7.35,0.37-9.68,4.18-9.68,4.18c-5.43-7.34-11.78-24.91-5.07-35.23C91.48,29.81,103.43,29.85,106.87,33.02z"/>
		<path class="st9" d="M100.61,63.74l4.27,1.9c0,0,0.24,3.25,1.79,8.99c0,0-0.11,7.94-6.06,12.23c-5.95-4.28-6.06-12.23-6.06-12.23
			c1.55-5.74,1.79-8.99,1.79-8.99L100.61,63.74z"/>
		<path class="st5" d="M100.6,70.01c6.93,0,11-8.42,11.8-19.34c0,0-4.62,0.93-7.98-6.45c-3.36,7.38-15.61,6.45-15.61,6.45
			C89.61,61.59,93.67,70.01,100.6,70.01z"/>
		<g>
			<path class="st10" d="M97.57,67.46c-0.01-0.02-0.02-0.03-0.02-0.05c-0.06-0.17-0.09-0.34-0.13-0.51c-3.38-0.64-6.31-2.87-8-6.13
				l-0.59-1.14l-0.57,0.34l0.59,1.14c1.83,3.55,5.05,5.93,8.75,6.53C97.59,67.58,97.58,67.52,97.57,67.46z"/>
		</g>
		<path class="st2" d="M88.89,51.62c-1.91,0.99-3.22,3.08-3.22,5.5c0,3.38,2.56,6.12,5.73,6.12c0.13,0,0.26-0.01,0.38-0.02
			C90.27,60.09,89.3,56.08,88.89,51.62z"/>
		<path class="st11" d="M88.89,51.62c-0.33,0.17-0.64,0.39-0.93,0.62c0.33,4.11,1.2,7.84,2.57,10.92c0.28,0.04,0.56,0.08,0.85,0.08
			c0.13,0,0.26-0.01,0.38-0.02C90.27,60.09,89.3,56.08,88.89,51.62z"/>
		<path class="st11" d="M97.02,68.13l-0.92-0.26c-0.43-0.12-0.69-0.59-0.58-1.05l0,0c0.11-0.46,0.56-0.74,0.99-0.62l0.92,0.26
			c0.43,0.12,0.69,0.59,0.58,1.06l0,0C97.9,67.97,97.45,68.25,97.02,68.13z"/>
		<path class="st12" d="M118.36,78.63c0,0,18.24,29.65,18.73,35.04c0.49,5.4-4.47,8-12.97,8c-8.5,0-10.05-0.08-10.05-0.08
			l-8.79-4.34l8.58-4.72c0,0,4.65-0.4,10.6-1.98c-1.93-2.9-5.61-5.68-7.4-9.52C117.06,101.04,117.25,87.34,118.36,78.63z"/>
		<path class="st12" d="M81.59,78.63c0,0-15.08,23.82-16.33,27.28l-11.61-7.37l-7.18,0.66l4.31,7.84c0,0,14.75,11.73,16.61,11.13
			c1.86-0.6,16.15-16.39,16.15-16.39S83.02,88.8,81.59,78.63z"/>
		<path class="st5" d="M47.77,96.08c0,0-0.21-4.21-4.08-5.8c-3.87-1.58-5.39-4.53-5.33-2.06c0.06,2.47,2.43,3.52,2.43,3.52
			s-3.37,0.26-5.7-2.3c-2.33-2.56-3.71-4.78-4.08-1.46c-0.37,3.32,1.91,11.89,14.75,13.63L47.77,96.08z"/>
		<polygon class="st7" points="48.18,95.08 53.64,98.55 50.78,107.05 45.27,102.74 		"/>
		<polygon class="st7" points="105.36,113.68 105.16,121.97 114.07,121.77 113.86,112.54 		"/>
		<rect x="85.44" y="97.84" class="st12" width="9.32" height="2.59"/>
		<g>
			<g>
				<ellipse class="st13" cx="96.04" cy="54.28" rx="0.98" ry="1.05"/>
				<path class="st8" d="M92.52,53.43c0,0,2.03-3.86,4.89-1.1C97.42,52.33,94.34,51.41,92.52,53.43z"/>
			</g>
			<g>
				<ellipse class="st13" cx="106.51" cy="54.28" rx="0.98" ry="1.05"/>
				<path class="st8" d="M108.98,53.43c0,0-2.03-3.86-4.89-1.1C104.08,52.33,107.16,51.41,108.98,53.43z"/>
			</g>
		</g>
		<path class="st14" d="M100.75,62.34H96.9c0,0,1.05,3.47,3.85,3.47s3.85-3.47,3.85-3.47H100.75z"/>
		<path class="st11" d="M100.75,64.07c-0.97,0-1.89,0.13-2.69,0.37c0.61,0.73,1.49,1.37,2.69,1.37s2.08-0.64,2.69-1.37
			C102.64,64.21,101.72,64.07,100.75,64.07z"/>
		<polygon class="st7" points="100.82,62.34 100.68,62.34 97.27,62.34 97.49,63.1 100.68,63.1 100.82,63.1 104.01,63.1 
			104.24,62.34 		"/>
		<path class="st9" d="M99.88,58.69c0,0,0.05,1.26,0.67,1.55C100.56,60.24,98.94,60.4,99.88,58.69z"/>
		<g class="st15">
			<path class="st10" d="M96.3,58.69c0,0.46-0.75,0.83-1.68,0.83c-0.93,0-1.68-0.37-1.68-0.83s0.75-0.83,1.68-0.83
				C95.55,57.86,96.3,58.23,96.3,58.69z"/>
			<path class="st10" d="M108.57,58.69c0,0.46-0.75,0.83-1.68,0.83c-0.93,0-1.68-0.37-1.68-0.83s0.75-0.83,1.68-0.83
				C107.82,57.86,108.57,58.23,108.57,58.69z"/>
		</g>
		<path class="st5" d="M110.96,56.42c0,0,0.98-2.07,2.45-1.41c1.47,0.66,1.02,4.12-0.73,5.23c-1.75,1.1-2.45-0.41-2.41-1.12
			C110.31,58.41,110.96,56.42,110.96,56.42z"/>
		<path class="st9" d="M113.08,56.34c0,0-1.42,0.77-1.35,1.84c0.07,1.07,1.43,0.23,0.93-0.43
			C112.66,57.74,112.27,57.35,113.08,56.34z"/>
	</g>
	<g>
		<path class="st4" d="M86.96,215.24l1.87-0.49c0,0,0.82,5.04,1.83,8.83c1.01,3.79,3.24,9.23,0.5,9.82
			c-2.75,0.59-12.78,1.04-13.28-0.48s1.09-10.17,2.33-13.76c1.24-3.59,0.94-4.68,2.96-5.37S86.96,215.24,86.96,215.24z"/>
		<path class="st4" d="M114.55,215.24l-1.87-0.49c0,0-0.82,5.04-1.83,8.83c-1.01,3.79-3.24,9.23-0.5,9.82
			c2.75,0.59,12.78,1.04,13.28-0.48c0.51-1.52-1.09-10.17-2.34-13.76c-1.24-3.59-0.94-4.68-2.96-5.37S114.55,215.24,114.55,215.24z"
			/>
		<path class="st4" d="M118.17,132.04l-17.41-3.13l-17.41,3.13c0,0-12.24,17.79-0.55,30.73l17.96-1.05l17.96,1.05
			C130.4,149.82,118.17,132.04,118.17,132.04z"/>
		<polygon class="st16" points="90.39,164.36 114.29,164.36 110.01,145.92 91.81,145.92 90.57,154.46 90.49,154.99 		"/>
		<path class="st5" d="M82.25,213.96c0,0-2.89-49.95,2.11-61.71c4.69-11.02,15.7-7.84,13.99,10.77
			c-1.71,18.61-9.73,50.67-9.73,50.67s2.24,11.61-3.04,11.61C80.29,225.3,80.98,220.73,82.25,213.96z"/>
		<path class="st5" d="M119.25,213.96c0,0,2.89-49.95-2.11-61.71c-4.69-11.02-15.7-7.84-13.99,10.77
			c1.71,18.61,9.73,50.67,9.73,50.67s-2.24,11.61,3.04,11.61C121.21,225.3,120.53,220.73,119.25,213.96z"/>
		<g>
			<path class="st2" d="M89.57,220.46c-0.13,0-0.25-0.08-0.3-0.21c-0.64-1.6-2.06-2.59-3.79-2.66c-1.85-0.08-3.53,0.96-4.35,2.68
				c-0.08,0.17-0.28,0.24-0.44,0.15c-0.16-0.09-0.23-0.3-0.14-0.48c0.94-1.96,2.83-3.15,4.96-3.06c1.99,0.07,3.62,1.22,4.37,3.08
				c0.07,0.18-0.01,0.39-0.17,0.46C89.66,220.45,89.61,220.46,89.57,220.46z"/>
		</g>
		<g>
			<path class="st2" d="M111.93,220.46c0.13,0,0.25-0.08,0.3-0.21c0.64-1.6,2.06-2.59,3.79-2.66c1.85-0.08,3.53,0.96,4.35,2.68
				c0.08,0.17,0.28,0.24,0.44,0.15c0.16-0.09,0.23-0.3,0.14-0.48c-0.94-1.96-2.83-3.15-4.96-3.06c-1.99,0.07-3.62,1.22-4.37,3.08
				c-0.07,0.18,0.01,0.39,0.17,0.46C111.84,220.45,111.89,220.46,111.93,220.46z"/>
		</g>
	</g>
</g>
<g>
	<path class="st2" d="M111.76,115.26l4.63-30.23h35.67c0.11-0.01,0.21-0.02,0.32,0c0.61,0.11,1.02,0.73,0.92,1.38l-4.27,27.87
		c-0.1,0.65-0.68,1.09-1.29,0.99C147.57,115.23,111.76,115.26,111.76,115.26z"/>
	<path class="st1" d="M139.42,104.04c0.56-0.12,1.1,0.27,1.21,0.87l2.58,14.2c0.06,0.32-0.02,0.66-0.22,0.91
		c-0.15,0.2-0.37,0.33-0.6,0.38l0,0.02h-0.19h-9.33h-3.68l-2.77-16.38H139.42z"/>
	<path class="st11" d="M111.76,115.26L111.76,115.26c0.61,0.11,1.19-0.34,1.29-0.99l4.27-27.87c0.1-0.65-0.32-1.27-0.92-1.38l0,0
		c-0.61-0.11-1.19,0.34-1.29,0.99l-4.27,27.87C110.74,114.53,111.15,115.15,111.76,115.26z"/>
	<g>
		<path class="st11" d="M119.86,120.42h9.33c0.31,0,0.6-0.15,0.8-0.4c0.2-0.25,0.28-0.59,0.22-0.91l-2.58-14.2
			c-0.11-0.6-0.65-0.99-1.21-0.87c-0.56,0.12-0.92,0.69-0.82,1.29l2.34,12.88h-8.08c-0.57,0-1.03,0.49-1.03,1.1
			C118.83,119.93,119.29,120.42,119.86,120.42z"/>
	</g>
</g>
<g>
	<g>
		<g>
			<rect x="177.86" y="142.26" class="st17" width="6.19" height="91"/>
		</g>
		<g>
			<rect x="17.81" y="142.26" class="st17" width="6.19" height="91"/>
		</g>
	</g>
	<g>
		<g>
			<polygon class="st18" points="189.63,143.73 184.05,143.73 12.23,143.73 12.23,122.62 189.63,122.62 			"/>
		</g>
	</g>
	<g>
		<rect x="12.23" y="122.62" class="st17" width="177.39" height="6.28"/>
	</g>
	<g>
		<g>
			<path class="st19" d="M193.22,126.36H8.64c-0.56,0-1.08-0.18-1.51-0.48c-0.76-0.53-1.26-1.45-1.26-2.49l0,0
				c0-0.82,0.31-1.56,0.82-2.1s1.2-0.87,1.96-0.87h184.57c0.76,0,1.46,0.33,1.96,0.87s0.82,1.28,0.82,2.1l0,0
				c0,0.97-0.44,1.83-1.12,2.38C194.41,126.14,193.84,126.36,193.22,126.36z"/>
		</g>
	</g>
	<path class="st20" d="M194.88,124.53c-0.46,0.37-1.04,0.59-1.66,0.59H8.64c-0.56,0-1.08-0.18-1.51-0.48
		c-0.61-0.42-1.04-1.09-1.2-1.87c-0.04,0.2-0.07,0.41-0.07,0.63c0,1.04,0.5,1.96,1.26,2.49c0.44,0.3,0.96,0.48,1.51,0.48h184.57
		c0.62,0,1.2-0.22,1.66-0.59c0.68-0.54,1.12-1.41,1.12-2.38c0-0.21-0.02-0.42-0.06-0.62C195.79,123.48,195.41,124.1,194.88,124.53z"
		/>
</g>
</svg>
