<?xml version="1.0" encoding="utf-8"?>
<!-- Generator: Adobe Illustrator 23.0.0, SVG Export Plug-In . SVG Version: 6.00 Build 0)  -->
<svg version="1.1" xmlns="http://www.w3.org/2000/svg" xmlns:xlink="http://www.w3.org/1999/xlink" x="0px" y="0px"
	 viewBox="0 0 750 500" style="enable-background:new 0 0 750 500;" xml:space="preserve">
<style type="text/css">
	.st0{display:none;}
	.st1{display:inline;fill:#E1E8F2;}
	.st2{display:inline;}
	.st3{fill:#81C2C2;}
	.st4{fill:none;stroke:#629C99;stroke-width:0.9987;stroke-linecap:round;stroke-linejoin:round;stroke-miterlimit:10;}
	.st5{fill:#9AD9DC;}
	.st6{fill:#FDFDFD;}
	.st7{fill:#C97B5F;}
	.st8{fill:none;stroke:#81C2C2;stroke-width:0.9987;stroke-linecap:round;stroke-linejoin:round;stroke-miterlimit:10;}
	.st9{fill:#80A1F2;}
	.st10{fill:#FFFFFF;}
	.st11{fill:#668BE0;}
	.st12{fill:none;stroke:#1E0B07;stroke-width:0.6963;stroke-linecap:round;stroke-linejoin:round;stroke-miterlimit:10;}
	.st13{fill:#1E0B07;}
	.st14{fill:#1F0C07;}
	.st15{clip-path:url(#XMLID_7_);}
	.st16{fill:none;stroke:#1D0006;stroke-width:0.4036;stroke-linecap:round;stroke-linejoin:round;stroke-miterlimit:10;}
	.st17{clip-path:url(#XMLID_8_);}
	.st18{fill:#FAFFFA;}
	.st19{clip-path:url(#XMLID_11_);fill:#CE5A64;}
	.st20{fill:#1D3266;}
	.st21{fill:none;stroke:#1E0B07;stroke-width:0.8065;stroke-linecap:round;stroke-linejoin:round;stroke-miterlimit:10;}
	.st22{fill:#E9A88C;}
	.st23{fill:#ECCE8C;}
	.st24{fill:none;stroke:#DDA963;stroke-width:2.5346;stroke-linecap:round;stroke-linejoin:round;stroke-miterlimit:10;}
	.st25{fill:none;stroke:#E1E8F2;stroke-width:0.9547;stroke-linecap:round;stroke-linejoin:round;stroke-miterlimit:10;}
	.st26{fill:none;stroke:#1E0006;stroke-width:1.4813;stroke-linecap:round;stroke-linejoin:round;stroke-miterlimit:10;}
	.st27{fill:#1E0006;}
	.st28{fill:none;stroke:#1E0B07;stroke-width:0.7752;stroke-linecap:round;stroke-linejoin:round;stroke-miterlimit:10;}
	.st29{clip-path:url(#XMLID_12_);}
	.st30{fill:none;stroke:#1D0006;stroke-width:0.4493;stroke-linecap:round;stroke-linejoin:round;stroke-miterlimit:10;}
	.st31{clip-path:url(#XMLID_13_);}
	.st32{fill:#6287DB;}
	.st33{fill:none;stroke:#4B71BC;stroke-width:1.0088;stroke-linecap:round;stroke-linejoin:round;stroke-miterlimit:10;}
	.st34{fill:none;stroke:#6A8EE0;stroke-width:1.0088;stroke-linecap:round;stroke-miterlimit:10;}
	.st35{fill:none;stroke:#1E0B07;stroke-width:0.7084;stroke-linecap:round;stroke-linejoin:round;stroke-miterlimit:10;}
	.st36{clip-path:url(#XMLID_14_);}
	.st37{fill:none;stroke:#1D0006;stroke-width:0.4106;stroke-linecap:round;stroke-linejoin:round;stroke-miterlimit:10;}
	.st38{clip-path:url(#XMLID_15_);}
	.st39{display:inline;opacity:0.67;}
	.st40{fill:#C8D6E4;}
	.st41{display:inline;opacity:0.67;fill:#C8D6E4;}
	.st42{display:inline;fill:#C8D6E4;}
	.st43{font-family:'Montserrat-Black';}
	.st44{font-size:43.3236px;}
	.st45{fill:#B1C1D8;}
</style>
<g id="BACKGROUND" class="st0">
	<rect class="st1" width="750" height="500"/>
</g>
<g id="OBJECTS">
	<g class="st0">
		<g class="st2">
			<polygon class="st3" points="635.31,367.21 638.49,499.42 596.74,499.42 588.34,361.56 			"/>
			<g>
				<polygon class="st3" points="546.76,367.2 537.25,499.42 579.95,499.47 600.41,361.56 				"/>
				<polyline class="st4" points="591.85,419.21 595.54,398.94 611.73,392.57 				"/>
			</g>
		</g>
		<g class="st2">
			<g>
				<g>
					<path class="st5" d="M581.17,209.12l-25.04,1.19c-3.39,0-14.67,7.07-14.32,13.65l6.07,89.63l-7.63,61.37l100.14-5.52
						l-2.01-143.23c-0.13-4.58-1.23-12.33-5.71-13.31l-25.17-4.02L581.17,209.12z"/>
					<rect x="560.94" y="247.25" class="st6" width="17.87" height="5.3"/>
					<polygon class="st7" points="573.08,209.37 586.72,208.52 607.5,208.87 614.72,210.03 606.01,233.15 					"/>
				</g>
				<g>
					<g>
						<path class="st5" d="M632.67,212.89c0.59,0.15,23.67-0.33,34.15,69.05l-29.43,6.74L632.67,212.89z"/>
					</g>
				</g>
				<g>
					<g>
						<path class="st5" d="M555.63,210.62c0,0-37.36,5.08-82.89,78.63l26.89,22.83c0,0,36.71-41.49,60.18-56.83L555.63,210.62z"/>
						<line class="st8" x1="544.14" y1="267.28" x2="554.09" y2="259.4"/>
					</g>
					<g>
						<g>
							<path class="st7" d="M570.99,323.85l-16.29-5.7l0.93-3.77c0.34-1.37-0.23-2.83-1.38-3.56c-1.19-0.75-2.7-0.53-3.64,0.54
								l-12.87,14.88l-9.77,11.48c9.27,6.1,18.5,6.27,21.34,4.33c0.38,0.07,12.88,2.42,12.88,2.42c1.24,0.34,2.5-0.4,2.88-1.69
								c0.28-0.94,0.2-2.36-2.4-3.27l2.61,0.91c1.31,0.36,2.64-0.44,3.01-1.82c0.36-1.23-0.53-2.62-2.09-3.37l1.96,0.47
								c1.43,0.4,2.89-0.56,3.15-2.16c0.23-1.38-0.64-2.72-1.89-3.15l-2.88-1l3.28,0.3c1.54,0.31,3.03-0.79,3.25-2.5
								C573.25,325.7,572.32,324.32,570.99,323.85z"/>
							<polygon class="st7" points="537.74,326.24 514.92,311.37 508.63,328.07 527.97,337.72 							"/>
						</g>
						<g>
							<g>
								<path class="st5" d="M493.49,284.85l44.25,31.29l-13.13,22.51l-44.36-21.36c-9.85-3.49-14.41-15.19-9.64-24.76v0
									C474.91,283.92,485.12,280.5,493.49,284.85z"/>
								<line class="st8" x1="512.4" y1="298.22" x2="498.91" y2="288.29"/>
							</g>
						</g>
					</g>
				</g>
			</g>
			<g>
				<path class="st9" d="M592.41,256.42c1.86,68.36,42.24,104.94,51.9,112.74c29.92-26.08,41.71-55.81,46.32-76.37
					c4.11-18.33,3.41-32.78,2.96-37.89l-50.21-27.18C625.58,237.51,598.95,252.32,592.41,256.42z"/>
				<g>
					<rect x="638.29" y="259.74" class="st10" width="15.93" height="62.16"/>
					
						<rect x="635.43" y="262.57" transform="matrix(6.123234e-17 -1 1 6.123234e-17 353.3803 935.0193)" class="st10" width="17.53" height="56.49"/>
				</g>
				<polygon class="st11" points="590,264.36 643.17,236.12 695.81,265.91 693.94,246.95 643.17,220.65 590,250.43 				"/>
				<path class="st6" d="M644.43,378.11c-0.67,0-1.35-0.2-1.94-0.62c-2.29-1.6-56.13-40.08-57.38-123.12c0,0,0,0,0-0.01
					c-0.05-3.36-0.05-3.56,56.65-34.67c1.02-0.55,2.21-0.56,3.22-0.01l53.59,29.01c1.05,0.57,1.79,1.67,1.98,2.94
					c0.11,0.74,2.62,18.32-2.77,42.68c-4.96,22.38-17.86,54.95-51.14,82.97C645.98,377.84,645.21,378.11,644.43,378.11z
					 M592.41,256.42c1.86,68.36,42.24,104.94,51.9,112.74c29.92-26.08,41.71-55.81,46.32-76.37c4.11-18.33,3.41-32.78,2.96-37.89
					l-50.21-27.18C625.58,237.51,598.95,252.32,592.41,256.42z"/>
			</g>
		</g>
		<g class="st2">
			<g>
				<path class="st7" d="M571.04,155.33c0,0-4.84-3.76-8.38,0.7c-5.37,6.78,4.03,19.07,12.21,12.74L571.04,155.33z"/>
				<path class="st12" d="M564.9,160.15c0,0,4.53-0.12,7.18,5.05"/>
			</g>
			<g>
				<path class="st7" d="M618.45,155.62c0,0,4.74-3.68,8.21,0.69c5.27,6.65-3.95,18.68-11.96,12.49L618.45,155.62z"/>
				<path class="st12" d="M624.29,160.15c0,0-4.14-0.12-6.8,5.05"/>
			</g>
			<path class="st13" d="M624.29,143.52c0,16.08-13.03,29.11-29.11,29.11c-16.08,0-29.11-13.03-29.11-29.11
				c0-16.08,10.81-30.06,29.11-30.06C613.08,113.46,624.29,127.44,624.29,143.52z"/>
			<path class="st7" d="M584.69,179.05l-1.96,33.9l-1.77,0.12c7.46,1.48,17.51,1.49,24.97,0l0.78-0.15l-3.07-34.58L584.69,179.05z"
				/>
			<path class="st14" d="M585.32,184.02c0.73,0.36,19.69,9.56,19.69,9.56l-0.98-12.02L585.32,184.02z"/>
			<path class="st7" d="M571.37,143c0,0-3.61,42.64,22.75,43.16C622.59,186.73,619,143,619,143s-0.16-22.38-24.03-22.38
				C573.09,120.62,571.37,143,571.37,143z"/>
			<g>
				<g>
					<path class="st12" d="M592.55,157.84l0.04,4.37c-0.31,0.57,0.88,1.28,2.12,1.28"/>
					<path class="st13" d="M587.62,140.63l-14.86,3.29c0,0,3.89-4.82,7.78-5.71C584.45,137.32,587.62,140.63,587.62,140.63z"/>
					<path class="st13" d="M599.22,140.52l14.24,4.05c0,0-3.23-4.92-7.09-6.06S599.22,140.52,599.22,140.52z"/>
					<g>
						<g>
							<defs>
								<path id="XMLID_6_" d="M588.53,153.64c0,0-4.73-6.34-12.33-1.23C576.2,152.41,580.76,158.94,588.53,153.64z"/>
							</defs>
							<use xlink:href="#XMLID_6_"  style="overflow:visible;fill:#FFFFFF;"/>
							<clipPath id="XMLID_7_">
								<use xlink:href="#XMLID_6_"  style="overflow:visible;"/>
							</clipPath>
							<path class="st15" d="M585.52,152.6c0.29,1.58-0.76,3.09-2.34,3.38c-1.58,0.29-3.09-0.76-3.38-2.34
								c-0.29-1.58,0.76-3.09,2.34-3.38C583.72,149.98,585.23,151.02,585.52,152.6z"/>
						</g>
						<path class="st16" d="M576.2,152.41c2.77-2.24,5.67-2.1,5.67-2.1c4.51,0.15,6.66,3.33,6.66,3.33"/>
					</g>
					<g>
						<g>
							<defs>
								<path id="XMLID_5_" d="M598.7,153.64c0,0,4.73-6.34,12.33-1.23C611.03,152.41,606.46,158.94,598.7,153.64z"/>
							</defs>
							<use xlink:href="#XMLID_5_"  style="overflow:visible;fill:#FFFFFF;"/>
							<clipPath id="XMLID_8_">
								<use xlink:href="#XMLID_5_"  style="overflow:visible;"/>
							</clipPath>
							
								<ellipse transform="matrix(0.3575 -0.9339 0.9339 0.3575 245.4233 662.9845)" class="st17" cx="604.56" cy="153.12" rx="2.9" ry="2.9"/>
						</g>
						<path class="st16" d="M611.03,152.41c-2.77-2.24-5.67-2.1-5.67-2.1c-4.51,0.15-6.66,3.33-6.66,3.33"/>
					</g>
					<g>
						
							<ellipse transform="matrix(0.7071 -0.7071 0.7071 0.7071 62.2288 456.3745)" class="st12" cx="582.01" cy="153.07" rx="9.3" ry="9.3"/>
						
							<ellipse transform="matrix(0.7071 -0.7071 0.7071 0.7071 69.0362 472.8092)" class="st12" cx="605.25" cy="153.07" rx="9.3" ry="9.3"/>
						<line class="st12" x1="595.95" y1="153.07" x2="591.31" y2="153.07"/>
					</g>
				</g>
				<g>
					<path class="st18" d="M592.9,160.21l-16.7,3.77c0,0-1.33,9.87,3.16,15.48c9.56,11.96,27.07,6.71,31.77-1.11
						c0,0,3.59-5.87,2.34-14.23L592.9,160.21z"/>
					<polygon class="st18" points="580.57,168.14 572.3,162.04 572.08,160.08 581.42,166.98 					"/>
					<polygon class="st18" points="608.24,168.16 607.44,166.96 618.25,159.69 617.91,161.65 					"/>
				</g>
			</g>
			<path class="st13" d="M614.7,125.67c0,0-6.04,11.9,6.19,19.76l-1.74-13.39L614.7,125.67z"/>
			<path class="st13" d="M600.3,119.79c0,0,0,0-0.61-1.07c-0.25-0.44-5.57-4.02-12.15-6.69c-2.51-3.63-7.02-6.06-12.18-6.06
				c-7.88,0-14.28,5.64-14.28,12.61c0,2.34,0.74,4.53,2,6.41c0.68,1.26,1.72,2.32,3.06,3.21c2.05,1.53,4.59,2.55,7.38,2.87
				c15.42,3.47,41.1-0.82,41.1-0.82l1.1-2.79L600.3,119.79z"/>
			<path class="st13" d="M576.2,116.51c0,0,17.72-11.14,25.74-7.73c9.99,4.25-3.87,10.49-7.28,16.11L576.2,116.51z"/>
			<path class="st13" d="M600.94,114.63c0,0,3.15-0.18,8.28,0.65c11.22,1.82,19.02,12.1,17.63,23.39c-0.6,4.9-1.91,10.23-4.46,15.18
				l-4.15-24.48l-10.81-8.76L600.94,114.63z"/>
			<path class="st13" d="M572.08,120.71c0,0-6.53,7.96-6.02,22.8l11.42-19.63L572.08,120.71z"/>
		</g>
	</g>
	<g class="st0">
		<g class="st2">
			<defs>
				<path id="XMLID_1_" d="M406.24,197.17c0,0,12.56,78.96,134.69,182.79c0,0-42.01-14.55-40.15,32.47
					c1.1,27.77-24.87,43.19-45.39,33.44c-20.63-9.8-36.8-13.52-47.6,1.41c-10.8,14.93,14.13,23.3-20.76,23.98
					c-34.89,0.68-65.82-48.14-134.77-6.06c0,0-39.54-114.94,49.36-266.25L406.24,197.17z"/>
			</defs>
			<use xlink:href="#XMLID_1_"  style="overflow:visible;fill:#C24D53;"/>
			<clipPath id="XMLID_11_">
				<use xlink:href="#XMLID_1_"  style="overflow:visible;"/>
			</clipPath>
			<path class="st19" d="M398.59,160.43c0,0-2.32,41.94,37.59,132.83c29.2,66.5,87.01,141.48,87.01,141.48l47.52-68.05
				l-90.86-101.97l-56.79-78.7L398.59,160.43z"/>
			<path class="st19" d="M409.95,465.16C329.3,318.91,357.3,187.98,357.3,187.98l7.91-2.34C367.83,395,479.84,471.27,479.84,471.27
				L409.95,465.16z"/>
			<path class="st19" d="M322.58,476.02c0,0-17.38-148.88,32.42-293.88L342.04,183c0,0-90.56,64.56-61.25,283.27L322.58,476.02z"/>
		</g>
		<g class="st2">
			<path class="st20" d="M411.18,347.88c2.11,22.56,16.68,151.59,16.68,151.59h-49.11l-12.69-95.65l-7.91,0.15l-9.33,95.5h-48.67
				c0,0,7.55-107.48,10.11-150.88L411.18,347.88z"/>
			<line class="st21" x1="344.46" y1="404.02" x2="379.68" y2="404.02"/>
		</g>
		<g class="st2">
			<g>
				<rect x="321.49" y="193.32" class="st9" width="77.81" height="161.05"/>
				<path class="st22" d="M341.92,185.63l18.48-2.75l19.34,3.11l7.15,7.33c0,0-4.72,7.72-27,7.72c-19.81,0-27.73-7.72-27.73-7.72
					L341.92,185.63z"/>
				<g>
					<polygon class="st23" points="380.49,238.53 359.53,238.53 338.56,238.53 325.42,258.87 359.53,289.53 393.63,258.87 					"/>
					<polygon class="st24" points="380.49,238.53 359.53,238.53 338.56,238.53 325.42,258.87 359.53,289.53 393.63,258.87 					"/>
					<g>
						<rect x="355.16" y="244.63" class="st10" width="8.73" height="30.95"/>
						
							<rect x="355.16" y="244.63" transform="matrix(6.123234e-17 -1 1 6.123234e-17 99.4195 619.6306)" class="st10" width="8.73" height="30.95"/>
					</g>
				</g>
			</g>
			<g>
				<g>
					<g>
						<path class="st10" d="M341.92,185.63c0,0-25.83,38.74-9,210.43c1.43,14.54-9.35,27.06-23.95,27.48l-24.77,0.72l23.22-231.47
							L341.92,185.63z"/>
						<polyline class="st25" points="341.92,185.63 318.63,212.71 327.32,228.57 312.58,242.8 328.96,345.67 						"/>
					</g>
					<g>
						<path class="st10" d="M308.37,192.79c0,0-24.49,1.88-95.25,91.73l29.7,21.67l63.77-65.04L308.37,192.79z"/>
					</g>
					<g>
						<path class="st26" d="M320.73,190.03c0,0-12.32,5.68-11.68,27.5"/>
						<g>
							<path class="st9" d="M302.46,256.45c0.3,1.87,1.7,3.31,3.44,3.74c0.57,0.14,1.18,0.18,1.8,0.08l1.33-0.2
								c0.4-0.06,0.68-0.44,0.62-0.84c-0.06-0.4-0.44-0.68-0.84-0.62l-1.33,0.2c-1.69,0.26-3.29-0.91-3.56-2.59
								c-0.54-3.44-1.44-9.27-2.24-14.53c-0.49,0.09-0.97,0.18-1.46,0.27C301.02,247.21,301.92,253.02,302.46,256.45z"/>
							<path class="st9" d="M327.67,252.57l-2.24-14.65c-0.49,0.06-0.98,0.13-1.47,0.2l2.24,14.68c0.13,0.83-0.08,1.65-0.57,2.32
								c-0.49,0.67-1.22,1.11-2.05,1.24l-2.22,0.34c-0.4,0.06-0.68,0.44-0.62,0.84c0.06,0.4,0.44,0.68,0.84,0.62l2.22-0.34
								C326.32,257.44,328.05,255.08,327.67,252.57z"/>
							<path class="st27" d="M323.87,227.71c-0.51-3.37-2.31-6.34-5.06-8.36c-2.75-2.02-6.11-2.85-9.48-2.33
								c-6.93,1.06-11.73,7.56-10.7,14.5c0.28,1.85,0.9,5.94,1.58,10.43c0.49-0.09,0.97-0.18,1.46-0.27
								c-0.68-4.47-1.3-8.54-1.58-10.38c-0.92-6.13,3.32-11.88,9.45-12.82c2.98-0.45,5.95,0.28,8.38,2.06
								c2.43,1.78,4.02,4.41,4.47,7.39l1.55,10.19c0.49-0.06,0.98-0.14,1.47-0.2L323.87,227.71z"/>
							<path class="st27" d="M312.13,258.85c0.21,1.37-0.73,2.65-2.1,2.86c-1.37,0.21-2.65-0.73-2.86-2.1s0.73-2.65,2.1-2.86
								C310.64,256.55,311.92,257.49,312.13,258.85z"/>
							<path class="st27" d="M322.41,257.28c0.21,1.37-0.73,2.65-2.1,2.86c-1.37,0.21-2.65-0.73-2.86-2.1
								c-0.21-1.37,0.73-2.65,2.1-2.86C320.93,254.98,322.2,255.92,322.41,257.28z"/>
						</g>
					</g>
				</g>
				<g>
					<g>
						<g>
							<polygon class="st22" points="272.78,287.78 307.36,290.45 314.41,304.19 303.43,309.72 277.18,309.08 							"/>
						</g>
						<path class="st22" d="M303.73,290.84l7.77-11.52c1.18-1.75,3.09-2.88,5.2-3.07l14.3-1.29c2.69-0.24,5.04,1.82,5.14,4.52
							c0.06,1.57-0.68,3.06-1.94,3.98c0.91,0.61,1.56,1.58,1.61,2.76c0.05,1.29-0.64,2.39-1.64,3.05c1.05,0.58,1.82,1.63,1.87,2.92
							c0.05,1.4-0.73,2.62-1.89,3.23c0.47,0.58,0.81,1.27,0.84,2.07c0.05,1.22-0.57,2.26-1.48,2.93c0.05,0.22,0.15,0.42,0.16,0.65
							c0.06,1.57-0.93,2.89-2.33,3.41l0,0.03c-0.07,0.02-2.84,1.28-5.1,2.3c-1.89,0.86-3.91,1.38-5.98,1.55l-16.8,1.37
							L303.73,290.84z"/>
					</g>
					<g>
						<path class="st10" d="M231.57,276.92l68.89,6.08l-5.37,29.9l-66.68,2.52c-11.8-0.16-20.72-10.76-18.85-22.42l0,0
							C211.24,282.51,221.06,275.33,231.57,276.92z"/>
						<line class="st25" x1="268.35" y1="280.16" x2="247.53" y2="277.96"/>
						<line class="st25" x1="286.99" y1="281.81" x2="281" y2="313.42"/>
					</g>
				</g>
			</g>
			<g>
				<g>
					<g>
						<path class="st10" d="M379.74,185.99c0,0,22.08,49.46,11.69,212.46c-0.86,13.44,10.36,24.64,23.82,25.06l23.29,0.75
							l-25.77-231.47L379.74,185.99z"/>
						<polyline class="st25" points="380.09,185.63 403.38,212.71 394.69,228.57 409.43,242.8 394.65,345.67 						"/>
					</g>
					<g>
						<path class="st10" d="M411.81,192.79c0,0,24.49,1.88,95.25,91.73l-29.7,21.67l-63.77-65.04L411.81,192.79z"/>
					</g>
					<g>
						<path class="st26" d="M394.07,188.94c0,0,13.93,20.97,9.64,50.91"/>
						<g>
							<circle class="st27" cx="403.7" cy="242.37" r="6.92"/>
							<path class="st9" d="M407.55,242.37c0,2.12-1.72,3.84-3.84,3.84c-2.12,0-3.84-1.72-3.84-3.84s1.72-3.84,3.84-3.84
								C405.83,238.53,407.55,240.25,407.55,242.37z"/>
						</g>
					</g>
				</g>
				<g>
					<g>
						<g>
							<polygon class="st22" points="446.44,287.78 411.87,290.45 404.82,304.19 415.79,309.72 442.05,309.08 							"/>
						</g>
						<path class="st22" d="M415.5,290.84l-7.77-11.52c-1.18-1.75-3.09-2.88-5.2-3.07l-14.3-1.29c-2.69-0.24-5.04,1.82-5.14,4.52
							c-0.06,1.57,0.68,3.06,1.94,3.98c-0.91,0.61-1.56,1.58-1.61,2.76c-0.05,1.29,0.64,2.39,1.64,3.05
							c-1.05,0.58-1.82,1.63-1.87,2.92c-0.05,1.4,0.73,2.62,1.89,3.23c-0.47,0.58-0.81,1.27-0.84,2.07
							c-0.05,1.22,0.57,2.26,1.48,2.93c-0.05,0.22-0.15,0.42-0.16,0.65c-0.06,1.57,0.93,2.89,2.33,3.41l0,0.03
							c0.07,0.02,2.84,1.28,5.1,2.3c1.89,0.86,3.91,1.38,5.98,1.55l16.8,1.37L415.5,290.84z"/>
					</g>
					<g>
						<path class="st10" d="M488.61,276.92l-68.89,6.08l5.37,29.9l66.68,2.52c11.8-0.16,20.72-10.76,18.85-22.42l0,0
							C508.94,282.51,499.12,275.33,488.61,276.92z"/>
						<line class="st25" x1="451.83" y1="280.16" x2="472.65" y2="277.96"/>
						<line class="st25" x1="433.18" y1="281.81" x2="439.17" y2="313.42"/>
					</g>
				</g>
			</g>
		</g>
		<g class="st2">
			<g>
				<path class="st22" d="M334.15,127.79c0,0-5.39-4.19-9.32,0.78c-5.98,7.55,4.49,21.23,13.59,14.19L334.15,127.79z"/>
				<path class="st28" d="M327.31,133.15c0,0,5.05-0.13,8,5.62"/>
			</g>
			<g>
				<path class="st22" d="M386.93,128.11c0,0,5.28-4.1,9.14,0.77c5.86,7.4-4.4,20.8-13.32,13.9L386.93,128.11z"/>
				<path class="st28" d="M393.43,133.15c0,0-4.61-0.13-7.57,5.62"/>
			</g>
			<path class="st13" d="M393.43,114.64c0,17.9-14.51,32.41-32.41,32.41s-32.41-14.51-32.41-32.41c0-17.9,12.03-33.46,32.41-33.46
				C380.96,81.17,393.43,96.74,393.43,114.64z"/>
			<path class="st22" d="M349.34,154.2l-2.18,37.75l-0.34,0.13c8.3,1.65,17.87,1.65,26.17,0.01l1.88-0.17l-4.44-38.5L349.34,154.2z"
				/>
			<path class="st14" d="M350.05,159.73c0.81,0.4,22.34,10.65,22.34,10.65L370.88,157L350.05,159.73z"/>
			<path class="st22" d="M334.51,114.06c0,0-4.01,47.46,25.32,48.05c31.71,0.64,27.7-48.05,27.7-48.05s-0.17-24.92-26.75-24.92
				C336.43,89.14,334.51,114.06,334.51,114.06z"/>
			<path class="st13" d="M382.75,94.09c0,0-7.94,10.43,4.79,19.97C387.54,114.06,390.33,109.32,382.75,94.09z"/>
			<path class="st13" d="M388.88,90.17c-2.33-6.18-21.59-13.37-28.13-14.7c-7.76-1.57-23.57-3.41-23.96,2.47
				c-0.08,1.26,1.01,2.38,2.77,3.36c-9.09,1.57-17.33,4.5-16.5,9.6c1.36,8.29,37.01,4.12,37.01,4.12l-6.18,2.47
				c-1.48,0.45-2.94,1.87-2.06,3.14c0.48,0.7,2.33,0.71,3.17,0.6l26.38-3.17l5.41-1.85C389.29,95.37,390.35,92.37,388.88,90.17z"/>
			<path class="st13" d="M331.98,92.1c0,0-6.37,13.95-2.96,27.72l7.77-20.4l5.52-8.92L331.98,92.1z"/>
			<path class="st13" d="M385.86,90.51c0,0,13.26-1.12,10.76,15.54c-2.7,17.97-6.34,20.58-6.34,20.58v-18.54l-7.52-14L385.86,90.51z
				"/>
			<g>
				<g>
					<path class="st28" d="M358.1,130.59l0.05,4.86c-0.35,0.63,0.98,1.42,2.36,1.42"/>
					<path class="st13" d="M352.61,111.42l-16.54,3.66c0,0,4.33-5.36,8.66-6.35C349.07,107.74,352.61,111.42,352.61,111.42z"/>
					<path class="st13" d="M365.52,111.3l15.86,4.51c0,0-3.6-5.48-7.89-6.75C369.2,107.79,365.52,111.3,365.52,111.3z"/>
					<g>
						<g>
							<defs>
								<path id="XMLID_4_" d="M353.62,125.91c0,0-5.26-7.06-13.73-1.37C339.89,124.54,344.97,131.81,353.62,125.91z"/>
							</defs>
							<use xlink:href="#XMLID_4_"  style="overflow:visible;fill:#FFFFFF;"/>
							<clipPath id="XMLID_12_">
								<use xlink:href="#XMLID_4_"  style="overflow:visible;"/>
							</clipPath>
							<path class="st29" d="M350.27,124.75c0.32,1.76-0.85,3.44-2.6,3.76c-1.76,0.32-3.44-0.85-3.76-2.6
								c-0.32-1.76,0.85-3.44,2.6-3.76C348.26,121.83,349.95,122.99,350.27,124.75z"/>
						</g>
						<path class="st30" d="M339.89,124.54c3.08-2.5,6.31-2.34,6.31-2.34c5.03,0.16,7.41,3.71,7.41,3.71"/>
					</g>
					<g>
						<g>
							<defs>
								<path id="XMLID_3_" d="M364.94,125.91c0,0,5.26-7.06,13.73-1.37C378.67,124.54,373.59,131.81,364.94,125.91z"/>
							</defs>
							<use xlink:href="#XMLID_3_"  style="overflow:visible;fill:#FFFFFF;"/>
							<clipPath id="XMLID_13_">
								<use xlink:href="#XMLID_3_"  style="overflow:visible;"/>
							</clipPath>
							<path class="st31" d="M368.29,124.75c-0.32,1.76,0.85,3.44,2.6,3.76c1.76,0.32,3.44-0.85,3.76-2.6
								c0.32-1.76-0.85-3.44-2.6-3.76C370.29,121.83,368.61,122.99,368.29,124.75z"/>
						</g>
						<path class="st30" d="M378.67,124.54c-3.08-2.5-6.31-2.34-6.31-2.34c-5.03,0.16-7.41,3.71-7.41,3.71"/>
					</g>
				</g>
				<g>
					<path class="st18" d="M358.48,133.22l-18.59,4.2c0,0-1.48,10.99,3.51,17.23c10.64,13.32,30.14,7.47,35.37-1.24
						c0,0,3.99-6.54,2.6-15.85L358.48,133.22z"/>
					<polygon class="st18" points="344.76,142.05 335.56,135.26 335.31,133.08 345.71,140.75 					"/>
					<polygon class="st18" points="375.57,142.07 374.67,140.73 386.71,132.64 386.33,134.83 					"/>
				</g>
			</g>
		</g>
	</g>
	<g>
		<g>
			<path class="st32" d="M397.52,497.36c-2.49-37.47-29.67-72.69-29.67-72.69l-56.14-30.29c0,0-8.87,60.33-12.27,127.27l-1.72,83.04
				h43.01l4.83-83.82l11.79,83.82h45.6C402.96,604.69,399.07,520.69,397.52,497.36z"/>
			<polyline class="st33" points="345.57,520.86 342.37,503.95 327.37,496.41 			"/>
		</g>
		<path class="st13" d="M321.47,255.36c0,0,12.93,30.45-11.66,71.14h63.93c0,0,7.1-17.64,6.71-78.05L321.47,255.36z"/>
		<g>
			<g>
				<path class="st22" d="M287.96,371.78c0,0-5.49,27.83-7.53,47.35c-0.72,6.86,3.84,13.16,10.58,14.62h0
					c7.34,1.6,14.58-3.09,16.12-10.44l9.89-47.15L287.96,371.78z"/>
				<path class="st9" d="M304.36,327.63c0,0-15.72,3.78-23.45,49.75h29.24l6.87-24.01L304.36,327.63z"/>
			</g>
			<g>
				<path class="st9" d="M324.97,320.3c0,0-16.13,3.39-23.1,9.05l3.92,31.37c0,0-12.63,18.3-0.44,45.31l-5.63,67.14l99,2.63
					l-15.81-77.92l13.79-71.37l-19.41-7.18L324.97,320.3z"/>
				<g>
					<polygon class="st22" points="324.97,320.3 348.26,314.68 377.3,319.32 339.9,338.26 					"/>
					<path class="st34" d="M300.34,377.38c0,0,1.35-10.21,5.44-16.66l-0.25-12.53"/>
					<rect x="350.55" y="355.54" class="st18" width="16.44" height="5.66"/>
				</g>
			</g>
			<g>
				<g>
					<g>
						<g>
							<path class="st22" d="M385.4,365.07l-13.68,56.97c-2.31,7.92-0.59,16.18,7.4,18.26l0,0c7.23,1.88,15.74-1.98,18.36-8.97
								c5.13-13.71,11.48-36.8,12.1-57.85L385.4,365.07z"/>
							<path class="st22" d="M376.32,411.65l-54.32-8.73c0,0-2.86,1.72-2.65,12.23l56.97,24.11V411.65z"/>
							<path class="st18" d="M322.01,402.92c0,0-24.01-9.38-29.35,7.91l26.32,4.32L322.01,402.92z"/>
						</g>
						<path class="st22" d="M295.19,434.07c0,0,38.03-3.27,68.15-10.8l-44.36-8.12l-26.32-4.32L295.19,434.07z"/>
						<path class="st18" d="M374.91,411.66l1.67-7.14l10.73-3.94c0.8-0.29,1.22-1.16,0.96-1.97l0,0c-0.25-0.78-1.06-1.24-1.86-1.05
							l-8.86,2.05l10.5-4.88c1.53-0.71,2.31-2.44,1.82-4.05l-0.22-0.74l0.69-0.3c0.97-0.43,1.44-1.54,1.05-2.53l0,0
							c-0.38-0.97-1.45-1.48-2.44-1.16l-7.35,2.33l2.56-1.8c0.84-0.59,1.02-1.76,0.4-2.58l0,0c-0.59-0.78-1.69-0.94-2.49-0.38
							l-8.9,6.32c-1.64,1.17-2.9,2.79-3.62,4.67l-5.64,15.17L374.91,411.66z"/>
					</g>
					<g>
						<path class="st9" d="M396.71,326.5c0,0,26.61,2.01,18.13,58.08l-45.45-5.16L396.71,326.5z"/>
						<polyline class="st34" points="381.62,380.81 373.38,379.87 377.3,352.5 						"/>
					</g>
				</g>
			</g>
		</g>
		<g>
			<g>
				<path class="st22" d="M326.31,262.06c0,0-4.92-3.82-8.52,0.72c-5.47,6.9,4.1,19.4,12.42,12.97L326.31,262.06z"/>
				<path class="st35" d="M320.06,266.96c0,0,4.61-0.12,7.31,5.14"/>
			</g>
			<g>
				<path class="st22" d="M374.55,262.35c0,0,4.82-3.75,8.35,0.7c5.36,6.76-4.02,19.01-12.17,12.7L374.55,262.35z"/>
				<path class="st35" d="M380.48,266.96c0,0-4.22-0.12-6.91,5.14"/>
			</g>
			<path class="st13" d="M380.48,250.04c0,16.36-13.26,29.62-29.62,29.62s-29.62-13.26-29.62-29.62s11-30.58,29.62-30.58
				C369.08,219.46,380.48,233.68,380.48,250.04z"/>
			<path class="st22" d="M340.19,286.19l-2,34.49l0.62,0.12c7.59,1.51,15.4,1.51,22.99,0.01l0.79-0.16l-3.13-35.18L340.19,286.19z"
				/>
			<path class="st14" d="M340.84,291.25c0.74,0.36,20.03,9.73,20.03,9.73l-0.99-12.23L340.84,291.25z"/>
			<path class="st22" d="M326.64,249.51c0,0-3.67,43.37,23.14,43.91c28.97,0.58,25.32-43.91,25.32-43.91s-0.16-22.77-24.45-22.77
				C328.39,226.74,326.64,249.51,326.64,249.51z"/>
			<g>
				<g>
					<path class="st35" d="M348.19,264.61l0.04,4.44c-0.32,0.58,0.89,1.3,2.16,1.3"/>
					<path class="st13" d="M343.71,247.5l-15.11,2.18c0,0,3.95-3.19,7.92-3.79C340.47,245.3,343.71,247.5,343.71,247.5z"/>
					<path class="st13" d="M355.5,247.42l14.49,2.69c0,0-3.29-3.26-7.21-4.02C358.86,245.33,355.5,247.42,355.5,247.42z"/>
					<g>
						<g>
							<defs>
								<path id="XMLID_10_" d="M344.1,260.34c0,0-4.81-6.45-12.54-1.25C331.56,259.09,336.2,265.74,344.1,260.34z"/>
							</defs>
							<use xlink:href="#XMLID_10_"  style="overflow:visible;fill:#FFFFFF;"/>
							<clipPath id="XMLID_14_">
								<use xlink:href="#XMLID_10_"  style="overflow:visible;"/>
							</clipPath>
							<path class="st36" d="M341.04,259.28c0.29,1.61-0.77,3.14-2.38,3.44s-3.14-0.77-3.44-2.38c-0.29-1.61,0.77-3.14,2.38-3.44
								C339.21,256.61,340.75,257.68,341.04,259.28z"/>
						</g>
						<path class="st37" d="M331.56,259.09c2.82-2.28,5.77-2.14,5.77-2.14c4.59,0.15,6.77,3.39,6.77,3.39"/>
					</g>
					<g>
						<g>
							<defs>
								<path id="XMLID_9_" d="M354.45,260.34c0,0,4.81-6.45,12.54-1.25C366.99,259.09,362.35,265.74,354.45,260.34z"/>
							</defs>
							<use xlink:href="#XMLID_9_"  style="overflow:visible;fill:#FFFFFF;"/>
							<clipPath id="XMLID_15_">
								<use xlink:href="#XMLID_9_"  style="overflow:visible;"/>
							</clipPath>
							<path class="st38" d="M357.51,259.28c-0.29,1.61,0.77,3.14,2.38,3.44c1.61,0.29,3.14-0.77,3.44-2.38
								c0.29-1.61-0.77-3.14-2.38-3.44C359.34,256.61,357.8,257.68,357.51,259.28z"/>
						</g>
						<path class="st37" d="M366.99,259.09c-2.82-2.28-5.77-2.14-5.77-2.14c-4.59,0.15-6.77,3.39-6.77,3.39"/>
					</g>
				</g>
				<g>
					<path class="st18" d="M348.55,267.02l-16.99,3.84c0,0-1.35,10.04,3.21,15.75c9.73,12.17,27.54,6.82,32.32-1.13
						c0,0,3.65-5.97,2.38-14.48L348.55,267.02z"/>
					<polygon class="st18" points="336,275.09 327.6,268.89 327.37,266.89 336.88,273.91 					"/>
					<polygon class="st18" points="364.16,275.11 363.34,273.89 374.34,266.49 374,268.49 					"/>
				</g>
			</g>
			<path class="st13" d="M340.84,226.74c-0.25,0.09-3.88,6.53,12.43,13.08c16.31,6.55,19.03,8.26,21.97,12.99
				c0,0,6.2-5.24-0.9-16.96C367.23,224.14,349.87,223.64,340.84,226.74z"/>
			<path class="st13" d="M340.84,228.55c0,0-1.66,10.46-14.36,19.18c0,0-3.42-12.74,7.18-19.18
				C344.26,222.11,340.84,228.55,340.84,228.55z"/>
		</g>
	</g>
	<g class="st0">
		<g class="st39">
			<path class="st40" d="M55.17,106.26c-1.76,1.45-2.85,3.5-3.06,5.78c-0.22,2.27,0.46,4.49,1.92,6.25c1.45,1.75,3.5,2.84,5.77,3.05
				c0.27,0.03,0.55,0.04,0.82,0.04c1.98,0,3.88-0.68,5.43-1.96c1.75-1.45,2.84-3.5,3.05-5.77c0.21-2.27-0.47-4.49-1.92-6.24
				C64.18,103.78,58.79,103.27,55.17,106.26z M64.78,117.89c-2.79,2.3-6.93,1.91-9.23-0.87c-1.12-1.35-1.64-3.05-1.47-4.79
				c0.17-1.74,1-3.32,2.35-4.43c1.22-1.01,2.7-1.5,4.17-1.5c1.89,0,3.76,0.81,5.06,2.37c1.11,1.35,1.64,3.05,1.47,4.79
				C66.96,115.2,66.13,116.78,64.78,117.89L64.78,117.89z"/>
			<path class="st40" d="M103.36,102.75c-1.52-1.84-4.07-2.52-6.3-1.72c-3.04-2.89-8.2-4.95-14.96-5.96c0.05-1.39,0.05-2.73,0-4.01
				c-0.37-8.4-3.05-13.95-7.56-15.63c-3.65-1.36-8.03-0.04-12.68,3.8c-1.96,1.62-3.94,3.68-5.88,6.12
				c-5.77-3.64-11.01-5.46-15.19-5.27c-0.15-0.26-0.32-0.5-0.51-0.73c-1.99-2.41-5.57-2.75-7.98-0.76
				c-1.17,0.97-1.89,2.33-2.04,3.83c-0.14,1.51,0.31,2.98,1.27,4.15c0.19,0.23,0.4,0.44,0.62,0.64c-0.97,4.07-0.17,9.56,2.32,15.91
				c-2.76,1.45-5.15,3-7.11,4.62c-4.65,3.84-6.77,7.9-6.12,11.74c0.8,4.75,5.75,8.43,13.93,10.37c1.24,0.29,2.56,0.55,3.94,0.76
				c-0.27,6.83,0.78,12.29,3.05,15.81c-1.21,2.04-1.02,4.68,0.5,6.51c0.96,1.17,2.33,1.89,3.83,2.03c0.18,0.02,0.37,0.03,0.55,0.03
				c1.31,0,2.58-0.45,3.6-1.3c1.04-0.86,1.73-2.06,1.97-3.39c2.16-0.64,4.43-1.94,6.76-3.86c1.96-1.62,3.93-3.68,5.87-6.11
				c1.18,0.74,2.35,1.42,3.49,2.01c5.1,2.66,9.67,3.73,13.21,3.1c0.37,0.02,1.88,0,3.93-1.69c2.27-1.88,2.74-3.77,2.74-3.79
				c1.3-3.37,1.11-8.07-0.55-13.61c-0.37-1.23-0.81-2.51-1.32-3.8c2.76-1.45,5.15-3,7.11-4.62c2.33-1.92,4.03-3.91,5.06-5.92
				c1.36,0.03,2.65-0.43,3.7-1.3c1.17-0.96,1.88-2.32,2.03-3.83C104.77,105.39,104.32,103.92,103.36,102.75z M98.37,109.99
				c-0.06-0.01-0.13-0.02-0.19-0.04l-0.13-0.03c-0.07-0.02-0.14-0.04-0.29-0.09c-0.09-0.03-0.17-0.07-0.31-0.12
				c-0.09-0.04-0.18-0.08-0.3-0.15c-0.09-0.05-0.17-0.1-0.28-0.18c-0.08-0.06-0.16-0.12-0.27-0.21c-0.08-0.07-0.16-0.14-0.25-0.23
				c-0.08-0.08-0.15-0.16-0.22-0.24c-0.46-0.56-0.74-1.23-0.82-1.95c-0.01-0.05-0.01-0.11-0.01-0.17l0-0.04
				c-0.03-0.56,0.07-1.12,0.29-1.63c0.23-0.55,0.58-1.01,1.04-1.39c1.56-1.29,3.89-1.07,5.18,0.49c0.63,0.76,0.92,1.71,0.83,2.69
				c-0.09,0.98-0.56,1.87-1.32,2.49C100.51,109.89,99.43,110.17,98.37,109.99z M41.49,82.05c3.65,0.03,8.22,1.71,13.27,4.89
				c-2.36,3.19-4.58,6.84-6.6,10.86c-4.33,1.23-8.33,2.72-11.91,4.44c-2.17-5.56-2.96-10.36-2.3-13.95
				c0.08,0.03,0.16,0.06,0.26,0.09c1.69,0.52,3.49,0.24,5-0.82c0.1-0.07,0.19-0.14,0.31-0.24c0.09-0.08,0.18-0.16,0.33-0.3
				C41.17,85.73,41.78,83.87,41.49,82.05z M73.84,77.29c3.72,1.39,5.95,6.31,6.28,13.86c0.05,1.16,0.05,2.39,0.01,3.67
				c-2.5-0.29-5.12-0.43-7.84-0.43c-1.59,0-3.21,0.05-4.86,0.15c-3.2-3.12-6.49-5.84-9.79-8.09c1.82-2.27,3.66-4.18,5.48-5.68
				C67.19,77.39,70.89,76.19,73.84,77.29z M74.21,125.49c0.99-2.13,1.91-4.33,2.74-6.56c0.83-2.24,1.58-4.51,2.23-6.76
				c2.01,3.19,3.7,6.37,5.03,9.46C81.18,123.08,77.82,124.38,74.21,125.49z M47,100.2c-0.99,2.13-1.91,4.34-2.74,6.56
				c-0.83,2.24-1.58,4.51-2.23,6.75c-2.01-3.19-3.69-6.36-5.03-9.45C40.03,102.61,43.38,101.31,47,100.2z M47.16,123.96
				c1.52,1.84,3.11,3.62,4.74,5.31c-3.77,0.15-7.37,0.02-10.71-0.37c0.25-3.35,0.8-6.9,1.65-10.58
				C44.19,120.22,45.64,122.12,47.16,123.96z M74.05,101.73c-1.52-1.84-3.11-3.62-4.73-5.3c3.77-0.14,7.36-0.02,10.7,0.37
				c-0.24,3.36-0.79,6.91-1.65,10.59C77.02,105.47,75.57,103.57,74.05,101.73z M77.73,109.95c-0.73,2.75-1.62,5.54-2.64,8.28
				c-1.01,2.72-2.17,5.41-3.43,7.99c-2.77,0.75-5.62,1.38-8.49,1.86c-2.89,0.49-5.79,0.84-8.63,1.04c-2.02-2.01-3.99-4.17-5.85-6.43
				c-1.86-2.25-3.61-4.59-5.21-6.96c0.73-2.77,1.62-5.55,2.63-8.28c1.02-2.73,2.17-5.42,3.43-7.99c2.77-0.75,5.62-1.38,8.49-1.86
				c2.88-0.49,5.78-0.83,8.63-1.03c2.03,2.02,4,4.18,5.85,6.42v0C74.38,105.25,76.14,107.59,77.73,109.95z M64.75,94.73
				c-2.32,0.21-4.68,0.52-7.05,0.92c-2.34,0.4-4.68,0.89-6.96,1.46c1.76-3.34,3.67-6.39,5.67-9.09
				C59.2,89.91,61.99,92.16,64.75,94.73z M38.45,85.61c-0.06,0.06-0.13,0.12-0.21,0.19c-0.07,0.06-0.14,0.11-0.25,0.19
				c-0.9,0.62-2.02,0.81-3.08,0.52c-0.09-0.02-0.18-0.05-0.3-0.1c-0.07-0.03-0.15-0.06-0.28-0.12c-0.06-0.03-0.13-0.06-0.19-0.09
				l-0.22,0.37l0,0l0.14-0.42c-0.06-0.04-0.13-0.08-0.19-0.11c-0.3-0.2-0.58-0.45-0.81-0.73c-0.63-0.76-0.92-1.72-0.83-2.7
				c0.09-0.98,0.56-1.87,1.32-2.5c1.57-1.29,3.89-1.07,5.19,0.49c0.23,0.27,0.41,0.58,0.55,0.91c0.04,0.09,0.07,0.18,0.11,0.28
				C39.83,83.12,39.47,84.6,38.45,85.61z M35.23,104.97c1.58,3.66,3.64,7.4,6.1,11.14c-1.1,4.34-1.81,8.55-2.11,12.52
				c-1.26-0.2-2.47-0.43-3.6-0.7c-7.35-1.74-11.77-4.86-12.43-8.77c-0.52-3.1,1.35-6.51,5.42-9.88
				C30.44,107.77,32.66,106.32,35.23,104.97z M44.68,146.49c0.66-0.55,1.48-0.84,2.34-0.84c0.12,0,0.24,0.01,0.36,0.02
				c0.98,0.09,1.87,0.56,2.49,1.32c0.07,0.08,0.13,0.17,0.19,0.26l0.36-0.24l-0.34,0.27c0.06,0.08,0.11,0.17,0.18,0.3
				c0.05,0.09,0.09,0.17,0.15,0.31c0.04,0.09,0.07,0.17,0.12,0.33c0.03,0.08,0.05,0.17,0.09,0.34c0.02,0.07,0.03,0.15,0.04,0.22
				l0.02,0.13c0.01,0.06,0.01,0.12,0.02,0.19l0.01,0.16c0,0.06,0,0.12,0,0.18c-0.02,1.08-0.51,2.08-1.33,2.77
				c-1.57,1.29-3.89,1.07-5.19-0.49C42.89,150.11,43.11,147.78,44.68,146.49z M51.39,145.72c-0.96-1.16-2.32-1.88-3.83-2.03
				c-0.18-0.02-0.36-0.03-0.55-0.03c-1.27,0-2.48,0.42-3.48,1.2c-1.82-3.18-2.67-7.99-2.44-13.99c3.94,0.46,8.21,0.55,12.7,0.28
				c3.22,3.14,6.51,5.85,9.79,8.09c-1.8,2.25-3.63,4.14-5.43,5.64l-0.04,0.03c-1.92,1.59-3.77,2.7-5.52,3.31
				c-0.01-0.07-0.03-0.14-0.04-0.21l-0.05-0.19c-0.02-0.08-0.04-0.15-0.07-0.23l-0.04-0.12c-0.04-0.11-0.08-0.22-0.15-0.38
				c-0.04-0.1-0.09-0.2-0.17-0.37c-0.06-0.11-0.12-0.22-0.19-0.35c-0.06-0.1-0.13-0.2-0.25-0.37
				C51.55,145.92,51.47,145.82,51.39,145.72z M56.44,130.96c2.34-0.21,4.71-0.52,7.06-0.92c2.34-0.4,4.67-0.88,6.96-1.46
				c-1.77,3.34-3.67,6.39-5.68,9.09C62,135.79,59.2,133.54,56.44,130.96z M73.05,127.9c4.33-1.23,8.33-2.72,11.91-4.44
				c0.46,1.18,0.86,2.35,1.2,3.48c2.17,7.24,1.68,12.62-1.38,15.15c-3.06,2.53-8.44,2-15.14-1.49c-1.03-0.54-2.11-1.15-3.19-1.83
				C68.81,135.57,71.03,131.91,73.05,127.9z M92.58,116.42c-1.82,1.5-4.04,2.95-6.6,4.31c-1.58-3.64-3.63-7.38-6.1-11.13
				c1.11-4.35,1.82-8.56,2.11-12.52c5.93,0.91,10.5,2.64,13.28,5.03c-1.1,0.96-1.78,2.28-1.92,3.74c-0.14,1.51,0.31,2.98,1.27,4.15
				c0.08,0.1,0.17,0.19,0.31,0.35c0.07,0.07,0.14,0.14,0.21,0.21l0.06,0.06c0.1,0.09,0.2,0.17,0.35,0.29
				c0.1,0.07,0.19,0.14,0.31,0.22c0.11,0.07,0.21,0.13,0.32,0.2l0.08,0.04c0.09,0.05,0.18,0.09,0.34,0.17
				c0.09,0.04,0.18,0.08,0.26,0.11C95.94,113.22,94.5,114.83,92.58,116.42L92.58,116.42z"/>
		</g>
		<g class="st39">
			<path class="st40" d="M681.51,124.18c0.72,1.95,2.16,3.5,4.04,4.36c1.89,0.87,3.99,0.95,5.94,0.23c1.94-0.72,3.49-2.16,4.36-4.04
				c0.1-0.23,0.2-0.46,0.28-0.69c0.59-1.7,0.58-3.54-0.05-5.25c-0.72-1.94-2.15-3.49-4.04-4.36c-1.89-0.87-4-0.95-5.94-0.23
				C682.08,115.69,680.03,120.17,681.51,124.18z M694.39,119.41c1.14,3.09-0.43,6.53-3.52,7.67c-1.49,0.55-3.11,0.49-4.56-0.17
				c-1.45-0.67-2.55-1.86-3.1-3.35c-0.5-1.35-0.48-2.77-0.04-4.03c0.57-1.62,1.82-2.99,3.56-3.63c1.49-0.55,3.11-0.49,4.56,0.17
				C692.73,116.74,693.83,117.92,694.39,119.41L694.39,119.41z"/>
			<path class="st40" d="M692.96,81.74c-2.04,0.75-3.39,2.74-3.36,4.9c-3.39,1.74-6.71,5.56-9.61,11.06
				c-1.17-0.46-2.33-0.87-3.45-1.2c-7.32-2.21-12.9-1.56-15.7,1.81c-2.26,2.72-2.45,6.89-0.54,12.03c0.81,2.17,1.98,4.49,3.49,6.88
				c-4.86,3.86-7.99,7.82-9.09,11.47c-0.27,0.05-0.53,0.13-0.78,0.22c-2.67,0.99-4.03,3.96-3.04,6.63c0.48,1.29,1.43,2.32,2.68,2.9
				c1.25,0.58,2.65,0.63,3.95,0.15c0.25-0.09,0.5-0.21,0.74-0.34c3.21,2.06,8.16,3.02,14.37,2.78c0.41,2.8,1.03,5.33,1.84,7.5
				c1.91,5.15,4.76,8.18,8.25,8.78c4.32,0.74,8.97-2.41,13.09-8.85c0.63-0.98,1.24-2.04,1.83-3.16c5.79,2.28,10.79,3.01,14.5,2.13
				c1.39,1.65,3.71,2.28,5.74,1.53c1.29-0.48,2.32-1.43,2.89-2.68c0.07-0.15,0.13-0.31,0.19-0.46c0.39-1.13,0.39-2.35-0.04-3.48
				c-0.43-1.15-1.25-2.11-2.32-2.7c0.1-2.05-0.33-4.39-1.29-6.97c-0.8-2.17-1.98-4.48-3.49-6.88c0.99-0.79,1.92-1.59,2.77-2.39
				c3.81-3.59,6.1-7.19,6.63-10.42c0.13-0.31,0.57-1.62-0.27-3.88c-0.93-2.52-2.41-3.49-2.43-3.49c-2.5-2.13-6.6-3.38-11.85-3.61
				c-1.17-0.05-2.4-0.05-3.66-0.01c-0.41-2.8-1.03-5.32-1.84-7.49c-0.96-2.58-2.15-4.64-3.56-6.12c0.43-1.16,0.42-2.41,0-3.56
				c-0.48-1.29-1.43-2.32-2.68-2.89C695.65,81.31,694.25,81.26,692.96,81.74z M697.68,88.19c-0.03,0.05-0.06,0.1-0.09,0.15
				l-0.06,0.1c-0.04,0.06-0.08,0.11-0.16,0.22c-0.05,0.07-0.11,0.13-0.2,0.23c-0.06,0.06-0.13,0.13-0.22,0.21
				c-0.07,0.06-0.14,0.12-0.24,0.19c-0.07,0.05-0.15,0.11-0.26,0.17c-0.08,0.05-0.16,0.09-0.27,0.14c-0.09,0.04-0.18,0.08-0.27,0.12
				c-0.62,0.23-1.28,0.27-1.92,0.12c-0.05-0.01-0.09-0.02-0.15-0.04l-0.04-0.01c-0.49-0.14-0.94-0.4-1.31-0.74
				c-0.4-0.36-0.7-0.8-0.88-1.31c-0.64-1.73,0.25-3.66,1.98-4.31c0.84-0.31,1.75-0.28,2.56,0.1c0.81,0.37,1.43,1.04,1.75,1.88
				C698.23,86.32,698.15,87.33,697.68,88.19z M656.6,128.67c1.12-3.13,3.94-6.55,8.18-9.93c2.03,2.99,4.5,5.99,7.35,8.93
				c-0.25,4.08-0.17,7.97,0.24,11.56c-5.43,0.2-9.79-0.56-12.68-2.21c0.05-0.06,0.1-0.12,0.15-0.2c0.96-1.3,1.26-2.92,0.8-4.54
				c-0.03-0.1-0.06-0.21-0.11-0.34c-0.04-0.1-0.08-0.2-0.16-0.37C659.67,130.05,658.26,128.97,656.6,128.67z M662.22,99.45
				c2.31-2.78,7.2-3.22,13.79-1.23c1.01,0.3,2.07,0.67,3.15,1.09c-1,2.06-1.91,4.27-2.72,6.6c-0.48,1.36-0.92,2.77-1.33,4.22
				c-3.65,1.81-6.97,3.83-9.88,5.98c-1.4-2.24-2.49-4.39-3.24-6.41C660.32,105.2,660.4,101.65,662.22,99.45z M703.74,113.59
				c-1.53-1.49-3.15-2.94-4.81-4.32c-1.67-1.39-3.4-2.71-5.14-3.94c3.35-0.77,6.58-1.27,9.63-1.48
				C703.77,106.88,703.87,110.16,703.74,113.59z M673.85,129.39c1.54,1.49,3.15,2.94,4.81,4.32c1.67,1.39,3.4,2.71,5.13,3.94
				c-3.34,0.77-6.57,1.26-9.62,1.48C673.83,136.09,673.72,132.82,673.85,129.39z M694.31,136.37c2.03-0.75,4.04-1.59,5.99-2.48
				c-1.01,3.29-2.19,6.34-3.53,9.09c-2.81-1.22-5.69-2.76-8.59-4.59C690.21,137.8,692.27,137.13,694.31,136.37z M683.28,106.61
				c-2.04,0.76-4.05,1.59-5.97,2.47c1.01-3.28,2.19-6.33,3.53-9.08c2.81,1.21,5.7,2.76,8.6,4.59
				C687.39,105.18,685.32,105.85,683.28,106.61z M691.45,105.91c2.15,1.45,4.27,3.05,6.32,4.75c2.04,1.69,4,3.48,5.83,5.34
				c-0.18,2.6-0.5,5.24-0.95,7.85c-0.45,2.63-1.02,5.22-1.7,7.73c-2.33,1.13-4.78,2.17-7.28,3.1c-2.49,0.92-5.02,1.72-7.54,2.39
				c-2.16-1.46-4.28-3.06-6.33-4.75c-2.04-1.69-4-3.49-5.83-5.34c0.18-2.6,0.5-5.24,0.95-7.85c0.45-2.62,1.02-5.21,1.7-7.72
				c2.34-1.14,4.79-2.18,7.27-3.1l0,0C686.41,107.37,688.94,106.57,691.45,105.91z M674.48,112.49c-0.51,2.05-0.96,4.18-1.33,6.33
				c-0.36,2.13-0.64,4.28-0.84,6.41c-2.34-2.52-4.39-5.07-6.1-7.6C668.67,115.82,671.45,114.09,674.48,112.49z M658.76,132.35
				c0.03,0.07,0.06,0.15,0.1,0.24c0.03,0.08,0.05,0.15,0.09,0.27c0.26,0.95,0.09,1.97-0.48,2.8c-0.05,0.07-0.1,0.14-0.18,0.23
				c-0.05,0.06-0.09,0.11-0.18,0.2c-0.04,0.05-0.09,0.09-0.14,0.13l0.25,0.3l0,0l-0.32-0.24c-0.05,0.04-0.1,0.09-0.15,0.13
				c-0.26,0.2-0.56,0.36-0.87,0.48c-0.84,0.31-1.75,0.28-2.57-0.1c-0.81-0.38-1.43-1.05-1.75-1.89c-0.64-1.73,0.24-3.67,1.98-4.31
				c0.3-0.11,0.62-0.18,0.94-0.2c0.09-0.01,0.17-0.01,0.27-0.01C657.03,130.42,658.19,131.17,658.76,132.35z M674.42,140.92
				c3.62-0.26,7.45-0.9,11.4-1.9c3.4,2.25,6.8,4.12,10.13,5.57c-0.54,1.02-1.11,1.99-1.68,2.88c-3.7,5.79-7.7,8.65-11.26,8.05
				c-2.82-0.48-5.19-3.12-6.86-7.62C675.39,145.88,674.81,143.53,674.42,140.92z M712.92,145.27c-0.27-0.74-0.28-1.53-0.02-2.26
				c0.04-0.1,0.08-0.2,0.12-0.3c0.37-0.81,1.04-1.43,1.88-1.74c0.09-0.03,0.18-0.06,0.28-0.09l-0.1-0.38l0.13,0.37
				c0.09-0.02,0.18-0.04,0.31-0.07c0.09-0.02,0.18-0.03,0.31-0.04c0.09-0.01,0.17-0.01,0.32-0.01c0.08,0,0.16,0.01,0.32,0.02
				c0.07,0.01,0.13,0.02,0.2,0.03l0.12,0.02c0.06,0.01,0.11,0.03,0.17,0.04l0.14,0.04c0.05,0.02,0.1,0.03,0.15,0.05
				c0.92,0.34,1.64,1.06,1.98,1.97c0.64,1.73-0.25,3.67-1.98,4.31C715.49,147.89,713.56,147,712.92,145.27z M714.27,139.27
				c-1.29,0.48-2.32,1.43-2.89,2.68c-0.07,0.15-0.13,0.31-0.19,0.46c-0.38,1.09-0.39,2.26-0.01,3.35c-3.28,0.61-7.66-0.11-12.75-2.1
				c1.58-3.25,2.94-6.89,4.05-10.82c3.66-1.82,6.98-3.83,9.88-5.98c1.39,2.22,2.47,4.36,3.22,6.36l0.02,0.04
				c0.79,2.12,1.19,4.05,1.19,5.73c-0.06-0.01-0.13-0.02-0.19-0.02l-0.17-0.02c-0.07-0.01-0.14-0.01-0.22-0.01l-0.12,0
				c-0.11,0-0.21,0-0.37,0.01c-0.1,0.01-0.2,0.02-0.37,0.04c-0.11,0.02-0.23,0.03-0.36,0.06c-0.11,0.02-0.21,0.05-0.39,0.1
				C714.49,139.19,714.38,139.23,714.27,139.27z M703.11,130.5c0.52-2.07,0.97-4.2,1.33-6.34c0.36-2.13,0.64-4.28,0.84-6.41
				c2.34,2.52,4.39,5.07,6.11,7.6C708.93,127.17,706.15,128.9,703.11,130.5z M705.46,115.32c0.25-4.08,0.16-7.97-0.24-11.56
				c1.16-0.04,2.28-0.03,3.35,0.01c6.87,0.31,11.35,2.34,12.6,5.73c1.26,3.39-0.81,7.85-5.82,12.56c-0.77,0.73-1.62,1.46-2.53,2.19
				C710.78,121.25,708.31,118.25,705.46,115.32z M701.46,95.09c0.75,2.01,1.32,4.35,1.72,6.96c-3.6,0.26-7.43,0.9-11.4,1.9
				c-3.41-2.26-6.81-4.13-10.13-5.57c2.56-4.83,5.42-8.23,8.3-9.9c0.49,1.23,1.42,2.21,2.64,2.77c1.25,0.58,2.65,0.63,3.94,0.15
				c0.11-0.04,0.22-0.09,0.39-0.16c0.08-0.04,0.16-0.08,0.24-0.12l0.07-0.04c0.1-0.06,0.2-0.12,0.35-0.21
				c0.09-0.06,0.18-0.12,0.29-0.2c0.09-0.07,0.18-0.14,0.26-0.22l0.06-0.06c0.07-0.06,0.13-0.12,0.25-0.24
				c0.06-0.06,0.12-0.13,0.17-0.19C699.72,91.25,700.67,92.97,701.46,95.09L701.46,95.09z"/>
		</g>
		<path class="st41" d="M500.2,185.32c0.47,0.42,1.2,0.39,1.63-0.09s0.39-1.2-0.09-1.63c-1.58-1.42-2.81-2.88-3.79-4.4l16.16-17.99
			c1.61,0.81,3.2,1.88,4.78,3.3c0.47,0.42,1.2,0.39,1.63-0.09c0.42-0.47,0.39-1.2-0.09-1.63c-8.3-7.46-17.06-6.48-25.59-5.11
			c0.45-8.62,0.48-17.44-7.82-24.89c-8.3-7.46-17.06-6.48-25.59-5.11c0.45-8.62,0.48-17.44-7.82-24.89
			c-0.47-0.42-1.2-0.39-1.63,0.09c-0.42,0.47-0.39,1.2,0.09,1.63c1.58,1.42,2.81,2.88,3.79,4.4l-16.16,17.99
			c-1.61-0.81-3.2-1.88-4.78-3.3c-0.47-0.42-1.2-0.39-1.63,0.09c-0.42,0.47-0.39,1.2,0.09,1.63c8.3,7.46,17.06,6.48,25.59,5.11
			c-0.45,8.62-0.48,17.44,7.82,24.89c8.3,7.46,17.06,6.48,25.59,5.11C491.92,169.05,491.89,177.86,500.2,185.32z M468.33,153.6
			c-1.61-1.44-2.85-2.94-3.84-4.48l16.12-17.94c1.64,0.82,3.26,1.9,4.87,3.34c1.61,1.44,2.85,2.94,3.84,4.48l-16.12,17.94
			C471.56,156.12,469.93,155.04,468.33,153.6z M441.93,127.84l15.11-16.82c2.54,5.28,2.38,11.04,2.06,17.04
			C453.16,129.03,447.45,129.81,441.93,127.84z M461.29,130.04c5.9-0.96,11.57-1.74,17.06,0.18l-15.05,16.76
			C460.8,141.73,460.97,136.01,461.29,130.04z M475.44,157.89l15.05-16.76c2.5,5.25,2.33,10.98,2.01,16.95
			C486.61,159.03,480.93,159.81,475.44,157.89z M494.7,160.05c5.93-0.96,11.64-1.74,17.16,0.22l-15.11,16.82
			C494.21,171.81,494.38,166.05,494.7,160.05z"/>
		<path class="st42" d="M242.39,135.27c-2.73,2.84-2.63,7.37,0.21,10.09c2.84,2.73,7.37,2.63,10.09-0.21
			c2.73-2.84,2.63-7.37-0.21-10.09C249.64,132.34,245.11,132.43,242.39,135.27z M250.78,143.33c-1.72,1.79-4.58,1.85-6.37,0.13
			c-1.79-1.72-1.85-4.58-0.13-6.37s4.58-1.85,6.37-0.13C252.45,138.69,252.5,141.54,250.78,143.33z"/>
		<path class="st42" d="M683.34,405.27c-2.73,2.84-2.63,7.37,0.21,10.09c2.84,2.73,7.37,2.63,10.09-0.21
			c2.73-2.84,2.63-7.37-0.21-10.09C690.59,402.34,686.06,402.43,683.34,405.27z M691.73,413.33c-1.72,1.79-4.58,1.85-6.37,0.13
			c-1.79-1.72-1.85-4.58-0.13-6.37c1.72-1.79,4.58-1.85,6.37-0.13C693.4,408.68,693.45,411.54,691.73,413.33z"/>
		<path class="st42" d="M39.87,393.66c-2.73,2.84-2.63,7.37,0.21,10.09c2.84,2.73,7.37,2.63,10.09-0.21
			c2.73-2.84,2.63-7.37-0.21-10.09C47.13,390.73,42.6,390.82,39.87,393.66z M48.27,401.72c-1.72,1.79-4.58,1.85-6.37,0.13
			c-1.79-1.72-1.85-4.58-0.13-6.37c1.72-1.79,4.58-1.85,6.37-0.13C49.93,397.07,49.99,399.93,48.27,401.72z"/>
		<path class="st42" d="M42.65,229.46c-1.8,1.88-1.74,4.87,0.14,6.67c1.88,1.8,4.87,1.74,6.67-0.14c1.8-1.88,1.74-4.87-0.14-6.67
			S44.45,227.59,42.65,229.46z M48.2,234.79c-1.14,1.18-3.02,1.22-4.21,0.09c-1.18-1.14-1.22-3.02-0.09-4.21
			c1.14-1.18,3.02-1.22,4.21-0.09C49.29,231.72,49.33,233.6,48.2,234.79z"/>
		<path class="st42" d="M704.18,203.29c-1.8,1.88-1.74,4.87,0.14,6.67s4.87,1.74,6.67-0.14c1.8-1.88,1.74-4.87-0.14-6.67
			S705.98,201.42,704.18,203.29z M709.73,208.62c-1.14,1.18-3.02,1.22-4.21,0.09c-1.18-1.14-1.22-3.02-0.09-4.21
			c1.14-1.18,3.02-1.22,4.21-0.09C710.83,205.55,710.87,207.44,709.73,208.62z"/>
		<path class="st42" d="M517.4,84.75c-1.8,1.88-1.74,4.87,0.14,6.67c1.88,1.8,4.87,1.74,6.67-0.14c1.8-1.88,1.74-4.87-0.14-6.67
			S519.2,82.88,517.4,84.75z M522.95,90.08c-1.14,1.18-3.02,1.22-4.21,0.09c-1.18-1.14-1.22-3.02-0.09-4.21
			c1.14-1.18,3.02-1.22,4.21-0.09C524.04,87.01,524.08,88.89,522.95,90.08z"/>
		<path class="st42" d="M480.91,211.12c-1.8,1.88-1.74,4.87,0.14,6.67s4.87,1.74,6.67-0.14c1.8-1.88,1.74-4.87-0.14-6.67
			S482.71,209.25,480.91,211.12z M486.46,216.45c-1.14,1.18-3.02,1.22-4.21,0.09c-1.18-1.14-1.22-3.02-0.09-4.21
			c1.14-1.18,3.02-1.22,4.21-0.09C487.56,213.38,487.59,215.27,486.46,216.45z"/>
	</g>
	<g class="st0">
		<text transform="matrix(1 0 0 1 131.8857 53.7974)" class="st2"><tspan x="0" y="0" class="st9 st43 st44">thank you</tspan><tspan x="218.78" y="0" class="st45 st43 st44"> </tspan><tspan x="227.97" y="0" class="st20 st43 st44">heroes</tspan></text>
		<g class="st2">
			<rect x="637.28" y="32.18" class="st10" width="5.11" height="18.11"/>
			
				<rect x="637.28" y="32.18" transform="matrix(6.123234e-17 -1 1 6.123234e-17 598.5981 681.0676)" class="st10" width="5.11" height="18.11"/>
		</g>
		<g class="st2">
			<rect x="107.41" y="32.18" class="st10" width="5.11" height="18.11"/>
			
				<rect x="107.41" y="32.18" transform="matrix(6.123234e-17 -1 1 6.123234e-17 68.7331 151.2026)" class="st10" width="5.11" height="18.11"/>
		</g>
	</g>
</g>
</svg>
